<?xml version="1.0" encoding="UTF-8"?>
<svg version="1.1" viewBox="0 0 1600 994" width="1280" height="1280" xmlns="http://www.w3.org/2000/svg">
<path transform="translate(0)" d="m0 0h1600v994h-1600z" fill="#F8F9F9"/>
<path transform="translate(1589,578)" d="m0 0 2 1-9 10-7 8-11 13-20 26-33 44-16 21-13 17-12 15-9 11-11 13-7 8-3 1-45 1 16 8 14 6v4l-11 11-7 8 16-4h26l43 8 10 1h9l17-3 13-5 17-10 18-14 14-10 10-6v233h-1352l-3-7 2-8 9-8 25-15 13-8 20-12 23-14 16-9 14-7 13-4 11-2h18l20 3 48 13 21 3h16l17-2 20-5 21-8 16-9 16-12 14-12 14-9 12-5 17-3h13l20 3 23 6 38 12 19 4 8 1h18l15-4 12-5 12-7 8-6 2-1v-2l-17-10-13-8-8-6-9-8v-2l-4-2-4-5v-2h-2l-5-11-1-2-1-14 2-12 5-8 7-7 11-6 7-2h15l28 2 3 1 1-4v3l30 5 11 1 12 3 7 7 7 9 9 11 2 10 1 9 13 8 15 9 29 17 5 3h139l32-19 30-18 3-22 7-8 9-11 9-10 12-3 21-3 1-1 9-1 17-1 1-1h18l1 1 10 1 4 2h8l7-6 14-9 3-3 13-10 8-10 2-7 1-8-4-6-7-5-10-5-4-4-1-9 6-7 10-6 7-4h3l4 11 1 3 1-1 3-19 8-7h2l1-3h2l1-3 7-7 29-9 30-9 38-10 63-16z" fill="#311154"/>
<path transform="translate(819,370)" d="m0 0 8 6 11 9 13 11 11 9 14 12 11 9 10 9 8 7 12 11 8 7 16 15 9 9 8 7 1 3 5-2 11-8 12-6h6v-2l9-1v3l-8 5-7 6-10 16-5 16-2 11v3 40l2 13 1 16 3 27-12 1h-2l-32 2-2 1-1 4v11l1-12 2-1 57-1h223l10 1 2 3v-6l-34-3-3-2-1-5-5 2-3 3h-2l5-40 1-11v-45l-4-20-6-15-7-10-6-6-5-3-1-2h10l19 10 9 7 15 15 8 11 3 5 8 13 9 17 12 27 2 4v3l-6 3v2l6 12 7 20 2 5 3 1 1-9 3-37 4-15 3-8 4-6 9-8 7-4 6 1 16 11 3 1h8l8-5 7-9 8-16 1-3h2l1-4 7-14h2l1-4h2l2-5 8-6 3-3h2v-2l12-6 8-2h15l7 3 8 7 5 9 1 3v15l-5 11-10 13-9 9-8 7-9 11-1 3h-2l-2 7v7l5 5 16 6v2h3v2h2l2 4 3 3-1 13-2 7h-2l-2 5-6 5-5 5-5 4-3 19-2 2-3-7-2-8-16 8-6 5-3 4 1 9 8 6 10 5 6 7 1 7-2 4-2 8-10 11-11 8h-2l-1 3-11 7-8 6-2 2h-8l-4-2-10-1-1-1h-18l-1 1-17 1-9 1-1 1-21 3-12 3-10 11-8 10-6 7-3 22-21 13-29 17-13 8h-139l-26-15-20-12-16-10-1-1-2-17-6-8-10-12-7-8-12-3-2-2 1-6v-6l1-1-2-1-11-25-4-14-2-12-1-11-10 24-2 1-1-2-1-30v-14l2-19 3-10-1-10-1-6h14l13 1 2-5-5-1-29-15-3-7-11-45-8-40-10-53-10-50-6-23-2-4z" fill="#F8F9F9"/>
<path transform="translate(1589,578)" d="m0 0 2 1-9 10-7 8-11 13-20 26-33 44-16 21-13 17-12 15-9 11-11 13-7 8-3 1-45 1 16 8 14 6v4l-11 11-7 8 16-4h26l43 8 10 1h9l17-3 13-5 17-10 18-14 14-10 10-6v233h-581l-2-1-2-13v-12l-2-2h-2v-2l4-1v-15h-12l-8-1-7-2 2-4h18l4 1v2l7-3h16l6-1 1-2-13 1h-46l-12-4-10-6-7-7-7-14v-10l7-11 4-3 6-3 9-2h24l7 2h6l3 2 25 1 13-1 1-3 6 1 14 6 7-1 14-6h2l5 10 6 16 4 9 1 5 9-1 26-8 11-3 2-2 10-2 7-2 12-3h2v-2l9-2 7-2 42-15 8-4 11-4h2v-2l9-3 16-8 5-3h2v-2l10-4 1-2 7-3 6-3h3v-3l11-8 9-8 8-10 4-8 2-8v-15l-4-11-8-9-7-5-6-3v-3l6-5 14-9 3-3 13-10 8-10 2-7 1-8-4-6-7-5-10-5-4-4-1-9 6-7 10-6 7-4h3l4 11 1 3 1-1 3-19 8-7h2l1-3h2l1-3 7-7 29-9 30-9 38-10 63-16z" fill="#48216F"/>
<path transform="translate(1295,746)" d="m0 0h18l1 1 10 1 4 2 9 1 10 6 10 9 5 10 1 4v15l-4 13-7 9-7 8-11 9-4 3h-2v3l-12 6h-4l-1 3-8 3h-2v2l-18 10-9 4h-5v2l-13 5-13 6-37 13-13 3h-3v2l-21 6-10 2-5 3-21 6-18 5-5-1-4-13-3-5-4-12-4-8v-2l-18 8-7-1-14-6-4-1-1 4-19 1-19-1-4-2-11-1-1-1h-24l-11 3-8 5-4 7-5-2-27-9-27-10-30-13-19-10-20-12-10-7-10-9v-2l-4-2-4-5v-2h-2l-5-11-1-2-1-14 2-12 5-8 7-7 11-6 7-2h15l28 2 3 1 1-4v3l30 5 11 1 12 3 7 7 7 9 9 11 2 10 1 9 13 8 15 9 29 17 5 3h139l32-19 30-18 3-22 7-8 9-11 9-10 12-3 21-3 1-1 9-1 17-1z" fill="#1D191E"/>
<path transform="translate(732,493)" d="m0 0 5 5 6 7 7 9v2h3l5 9 14 19 6 9 9 13 12 19 9 14 2 1 3 8 10 15 14 24 3 5 16 28 13 24 12 22 16 32-13-2-18-3h-3l-31-2h-15l-11 4-9 6-7 8-3 9-1 11 1 10 5 10v3h2l6 8 5 5 11 9 13 8 20 12v4l-9 6-8 5-14 7-5 2-13 3h-18l-6-1-1-13-2-5-11-7-18-4-16-4-16-3-11-6-7-8-2-4v-8l3-7 8-7 4-4v-11l-6-5-6-2v-2h-22l-19-2-13-5-10-8-5-6-2-4v-11l4-8 6-5 9-12 1-5h-2l-4-6-11-7-30-11-17-8-10-10-5-9-1-4v-17l4-8 5-5 8-5 7-3 11-2h9l8 2 9 2 19 10 7 5v2l4 1 7 6 5 5 5 3 5 4 5 2v2l12 1 8-3 5-6 3-9 2-3h2l2-4 3-2h11l8 2v2l9 3 7 7v3l3 1 5 7v4h2l8 14 2 8h2l3 5v4l3 1 5 7 4 2 7-1 8-6h3l-9-3-8-6-5-6v-5l6-5 3-1h9l16 6 16 9 6 3-4-8-6-10-13-23-28-4-15-4-8-4-4-5-1-4 3-5 4-2h12l16 7 13 6-16-28-2-5-26-2-18-3-10-4-6-6v-6l6-4 3-1h8l14 4 20 9v-3l-6-9-12-21-32-3-13-4-6-4-2-3 1-5 6-4h8l18 6 16 7-11-18-6-10h-30l-16-2-10-5-3-4 1-5 4-3 3-1h8l9 2 32 13-11-18z" fill="#FAB940"/>
<path transform="translate(1151,477)" d="m0 0h10l19 10 9 7 15 15 8 11 3 5 8 13 9 17 12 27 2 4v3l-6 3v2l6 12 7 20 2 5 3 1 1-9 3-37 4-15 3-8 4-6 9-8 7-4 6 1 16 11 3 1h8l8-5 7-9 8-16 1-3h2l1-4 7-14h2l1-4h2l2-5 8-6 3-3h2v-2l12-6 8-2h15l7 3 8 7 5 9 1 3v15l-5 11-10 13-9 9-8 7-9 11-1 3h-2l-2 7v7l5 5 16 6v2h3v2h2l2 4 3 3-1 13-2 7h-2l-2 5-6 5-5 5-5 4-3 19-2 2-3-7-2-8-16 8-6 5-3 4 1 9 8 6 10 5 6 7 1 7-2 4-2 8-10 11-11 8h-2l-1 3-11 7-8 6-2 2h-8l-4-2-10-1-1-1h-18l-1 1-17 1-9 1-1 1-21 3-12 3-10 11-8 10-2 2-4 2v-11l4-41 1-16 1-2 2-25 4-37v-16l-34-3-3-2-1-5-5 2-3 3h-2l5-40 1-11v-45l-4-20-6-15-7-10-6-6-5-3z" fill="#FAB83F"/>
<path transform="translate(1100,260)" d="m0 0h19l8 3 10 9 5 8 8 16 8 8 12 9 5 8v14l-5 14-16 30-2 2v12l-4 10-7 8-5 3-9 1-8 16-12 16v7l4 11 4 13v12l-6 8-7 6-13 5-4 1h-20l-12-4-9-6-7-7-2-5v-7l4-10 5-10 3-13-1-5-10-13-5-10-2-5-6-3-9-7-4-10v-18l-4-8-3-12-1-6v-22l-4-7-5-10-1-3v-18l3-10 6-8 8-7 9-4 12-1 10 4 13 6 3 1h10l12-3 19-8z" fill="#F8CAA0"/>
<path transform="translate(819,370)" d="m0 0 8 6 11 9 13 11 11 9 14 12 11 9 10 9 8 7 12 11 8 7 16 15 9 9 8 7 1 3 5-2 11-8 12-6h6v-2l9-1v3l-8 5-7 6-10 16-5 16-2 11v3 40l2 13 1 16 3 27-12 1h-2l-32 2-2 1-1 4v11l1 5 4 49 6 56 2 17v6l-3 2-10-11-7-9-5-4-10-2-2-2 1-6v-6l1-1-2-1-11-25-4-14-2-12-1-11-10 24-2 1-1-2-1-30v-14l2-19 3-10-1-10-1-6h14l13 1 2-5-5-1-29-15-3-7-11-45-8-40-10-53-10-50-6-23-2-4z" fill="#56B5B3"/>
<path transform="translate(1589,578)" d="m0 0 2 1-9 10-7 8-11 13-20 26-33 44-16 21-13 17-12 15-9 11-11 13-7 8-3 1-45 1 16 8 14 6v4l-11 11-7 8v2l-7 2v2l-7 4-5 5-10 8-12 7-15 5h-22l2-4 9-7 8-7 8-10 4-8 2-8v-15l-4-11-8-9-7-5-6-3v-3l6-5 14-9 3-3 13-10 8-10 2-7 1-8-4-6-7-5-10-5-4-4-1-9 6-7 10-6 7-4h3l4 11 1 3 1-1 3-19 8-7h2l1-3h2l1-3 7-7 29-9 30-9 38-10 63-16z" fill="#4099B0"/>
<path transform="translate(732,493)" d="m0 0 5 5 6 7 7 9v2h3l5 9 14 19 6 9 9 13 12 19 9 14 2 1 3 8 10 15 14 24 3 5 16 28 13 24 12 22 16 32-13-2-18-3h-3l-31-2h-15l-11 4-9 6-7 8-3 9-6-2-7-6-19-19-3-2-8-37-5-20-4-13-2-8-6-20-1-11h-5v-2h14l3 1v2l9 3 7 7v3l3 1 5 7v4h2l8 14 2 8h2l3 5v4l3 1 5 7 4 2 7-1 8-6h3l-9-3-8-6-5-6v-5l6-5 3-1h9l16 6 16 9 6 3-4-8-6-10-13-23-28-4-15-4-8-4-4-5-1-4 3-5 4-2h12l16 7 13 6-16-28-2-5-26-2-18-3-10-4-6-6v-6l6-4 3-1h8l14 4 20 9v-3l-6-9-12-21-32-3-13-4-6-4-2-3 1-5 6-4h8l18 6 16 7-11-18-6-10h-30l-16-2-10-5-3-4 1-5 4-3 3-1h8l9 2 32 13-11-18z" fill="#F69D41"/>
<path transform="translate(1100,260)" d="m0 0h19l8 3 10 9 5 8 8 16 8 8 12 9 5 8v14l-5 14-16 30-3 1-5-8-3-2h-6l-7 5-5 10-2-2-7-18-5-8-9-5-26-10-14-8-6-3-8-6-2-2-7 10-8 9-7 15-2 5-1 7-6 3-3 5h-2l-4-8-3-12-1-6v-22l-4-7-5-10-1-3v-18l3-10 6-8 8-7 9-4 12-1 10 4 13 6 3 1h10l12-3 19-8z" fill="#041953"/>
<path transform="translate(999,475)" d="m0 0h3v3l-8 5-7 6-10 16-5 16-2 11v3 40l2 13 1 16 3 27-12 1h-2l-32 2-2 1-1 4v11l1 5 4 49 6 56 2 17v6l-3 2-10-11-7-9-5-4-10-2-2-2 1-6v-6l1-1-2-1-11-25-4-14-2-12-1-11-10 24-2 1-1-2-1-30v-14l2-19 3-10-1-10-1-6h14l13 1 4-10 4-11v-3l-5-3v-5l3-5 9-21 13-25 9-14 8-11 10-11 9-6 10-7 12-6h6v-2z" fill="#F8CAA0"/>
<path transform="translate(1415,482)" d="m0 0 5 1 8 9 4 9v15l-5 11-10 13-9 9-8 7-9 11-1 3h-2l-2 7v7l5 5 16 6v2h3v2h2l2 4 3 3-1 13-2 7h-2l-2 5-6 5-5 5-5 4-3 19-2 2-3-7-2-8-16 8-6 5-3 4 1 9 8 6 10 5 6 7 1 7-1-4-24 11-12 5-8 2-40 14-15 5-6 1-3-2 3-10 9-20 8-16 11-24 4-6 5-1v-2l18-8 14-7 22-9 17-8 4-4-9 3-30 14-5 2-2 2-5 1-18 7h-6l1-5 10-20 6-11 6-10 12-21 5-9 15-23 29-44 8-11 4-9z" fill="#F49244"/>
<path transform="translate(1151,477)" d="m0 0h10l19 10 9 7 15 15 8 11 3 5 8 13 9 17 12 27 2 4v3l-6 3v2l6 12 7 20 2 5 3 1 1-9 2-25h1v14l-2 20-2 2h-3l5 16 3 15v15l-5 25-6 18-8 16-8 13-3 6-9 10-8 10-2 2-4 2v-11l4-41 1-16 1-2 2-25 4-37v-16l-34-3-3-2-1-5-5 2-3 3h-2l5-40 1-11v-45l-4-20-6-15-7-10-6-6-5-3z" fill="#F8C99F"/>
<path transform="translate(726,755)" d="m0 0h24l13 12 6 5 5 3 7 5h3l2 9 1 10 5 10v3h2l6 8 5 5 11 9 13 8 20 12v4l-9 6-8 5-14 7-5 2-13 3h-18l-6-1-1-13-2-5-11-7-18-4-16-4-16-3-11-6-7-8-2-4v-8l3-7 8-7 4-4v-11l-7-8-4-6-5-3-1-4-6-1-2-1v-2h-3l-1-6 3-1z" fill="#F7A840"/>
<path transform="translate(973,879)" d="m0 0h24l7 2h6l3 2 25 1 13-1 1-3 6 1 14 6 7-1 14-6h2l5 10 6 16 4 9 1 5 9-1 26-8 11-3 2-2 10-2 21-6h9l-1 11-7 14-10 9-12 5-8 2h-58l-8-2-2-7-17-3-9 1-14 1-2-2 1-4 1-6-3 3-1 10 1 5-5 2-16 2h-46l-12-4-10-6-7-7-7-14v-10l7-11 4-3 6-3z" fill="#B50A63"/>
<path transform="translate(1589,578)" d="m0 0 2 1-9 10-7 8-11 13-20 26-33 44-16 21-13 17-12 15-9 11-11 13-7 8h-25v-1l13-2 7-3 5-5h2l2-5 4-5 1-3h2l1-5 4-1 1-4 6-1v-2l-9-1v-2l-4-1-8-3-1-3v-7l2-5 2-9v-8l-1-10v-4h2l1-3 2-1-1-6v-3l1-3 1-10 3-9 4-11 1-3-2-5h-13l-9 1h-3l-4-1 6-3 30-9 37-10 71-18z" fill="#338CAC"/>
<path transform="translate(732,493)" d="m0 0 5 5 6 7 7 9v2h3l5 9 14 19 6 9 9 13 12 19 9 14 2 1 3 8 10 15 14 24 3 5 16 28 13 24 12 22 16 32-13-2-18-3-2-1-5-11 1-2 13 9-1-5-12-21-8-13-8-3-11-11-9-4h-8l-8 8-5-1-8-4-7-7-1-7 6-5 3-1h9l16 6 16 9 6 3-4-8-6-10-13-23-28-4-15-4-8-4-4-5-1-4 3-5 4-2h12l16 7 13 6-16-28-2-5-26-2-18-3-10-4-6-6v-6l6-4 3-1h8l14 4 20 9v-3l-6-9-12-21-32-3-13-4-6-4-2-3 1-5 6-4h8l18 6 16 7-11-18-6-10h-30l-16-2-10-5-3-4 1-5 4-3 3-1h8l9 2 32 13-11-18z" fill="#56B5B3"/>
<path transform="translate(568,634)" d="m0 0 6 1 16 8 20 12 38 24 18 11 10 7 18 13 16 11 3-1 2 5 5 2 1 3 4 2 3 1 3 5 9 8 1 3-23 1-41 1h-24l-24-1-4-1 1-10 6-7 5-5 6-8 1-5h-2l-4-6-11-7-30-11-17-8-10-10-5-9-1-4v-17z" fill="#FAB93F"/>
<path transform="translate(875,418)" d="m0 0 4 1 11 10 11 9 7 7 8 7 10 9 15 14 9 9 8 7 2 4-9 8-7 9-11 16-9 16-8 16-5 11-4 11-2 2v5l5 3-2 9-5 10-5-1-21-11 1-4 7-1 1-3-2-5-1-15 1-7-16-7-5-2-1-3 9 2 10 3 1-3h3l2-14 1-8v-26l3-12h2l1-8-4-5-1-3-7-1v-2l-6-2-12-7-11-6-4-4 6 2 8 4v2l6 2 14 8 4 1 4-5 3-7 2-1 2-6-1-8-4-7-4-4-7-8-4-5v-2h-2z" fill="#4BA7B2"/>
<path transform="translate(1415,482)" d="m0 0 5 1 8 9 4 9v15l-5 11-10 13-9 9-8 7-9 11-1 3h-2l-2 7v7l5 5 16 6v2h3v2h2l3 6-6 4-10 4-11 5-3 3-36 16-4 3-5 1-18 7h-6l1-5 10-20 6-11 6-10 12-21 5-9 15-23 29-44 8-11 4-9z" fill="#F49242"/>
<path transform="translate(999,475)" d="m0 0h3v3l-8 5-7 6-10 16-5 16-2 11v3 40l2 13 1 16 3 27-3-1-5-5-10-8-14-9-16-8-15-7-8-3-1-1v-5l3-5 9-21 13-25 9-14 8-11 10-11 9-6 10-7 12-6h6v-2z" fill="#B50A64"/>
<path transform="translate(1151,477)" d="m0 0h10l19 10 9 7 15 15 8 11 3 5 8 13 9 17 12 27 2 4v3l-16 7-26 13-14 10-11 7-3 3h-2l5-40 1-11v-45l-4-20-6-15-7-10-6-6-5-3z" fill="#B60A63"/>
<path transform="translate(1396,479)" d="m0 0h15l2 1-2 4-8 11-4 4-14 20-13 19-11 17-12 19-10 17-6 13-3 3-9 16-9 19-4 2-2-4-2-21-4-25-5-33-1-13 6 1 9 7 5 2h8l8-5 7-9 8-16 1-3h2l1-4 7-14h2l1-4h2l2-5 8-6 3-3h2v-2l12-6z" fill="#F79D42"/>
<path transform="translate(1282,551)" d="m0 0 4 2 2 12 4 19 4 28 7 37 2 7-3 9-3 6-3 3-11 24-10 19-3 2h-5l-2-12-3-5-1-1-2 3v-8l3-16v-15l-5-22-2-9 4-2 2-20 1-26 3-11h2l1-6h2l1-6 1-3h2l2-4z" fill="#F8A840"/>
<path transform="translate(1052,880)" d="m0 0 6 1 14 6 7-1 14-6h2l5 10 6 16 4 9 1 5 9-1 26-8 11-3 2-2 10-2 21-6h9l-1 11-7 14-10 9-12 5-8 2h-58l-8-2-2-7-17-3-9 1-14 1-2-2 1-4 2-5v-17l-5-6-2-1v-3l3-2z" fill="#B60A63"/>
<path transform="translate(1294,392)" d="m0 0h10l4 4v7l-8 13-4 5h-2l-2 4-7 7-14 11-10 9-6 9-6 13 6-2 8-4 6-1v-2l5-2 8-1v-2l4-1 10 2 3 3v6l-5 5-6 3-9 2-9 1-26 1-3 9-6 13h3l19-9 4-1h9l2 1v2l4 1 1 6-8 5h-4v3l-2 1-9 1-11 3-8 1-8-1-1 6-5 7-2 3-5-8-2-5 1-3-4-14-2-8-5-15-2-5-1-11 3-7 4-2h5l4 5 3 11 1 8v17l-1 14 8-12 3-3 6-12-1-7-4-13-1-11h-2l-3-14v-11l2-5 5-4h5l4 5 2 8 1 10-2 18-2 9v7l5-5 10-15 5-10h2l2-6 6-13 9-18h2v-3h2l1-4 3-3h2l1-3z" fill="#F7C088"/>
<path transform="translate(798,819)" d="m0 0 4 2 6 7 8 6 13 8 20 12v4l-9 6-8 5-14 7-5 2-13 3h-18l-6-1-1-13-2-5-11-7-18-4-16-4-11-3 1-4-5-5-1-5 15-2 53-2 20-3z" fill="#F69D41"/>
<path transform="translate(1263,512)" d="m0 0 2 1-4 3h-5l1 4 5 1-4 3 1 9 6 3 3 9-5 5 6 4 3-4-1-2 4-7 5-3 14-1 14 4 2 1 2-11 8-4 5-5h3l2-6 3-1 1 2-1 4 1 10-1 7h2l2 2h2l-2 5-6 8-5 4-4 2h-8l-8-4-8-6-6-3-5 1-10 7-6 7-3 7-4 13-2 17-2 25-2 9-4-1-10-27-4-8v-2l-2-1 3-3 5-1-8-18-6-13-12-24 1-5 5-8 1-4h9l16-3 2-1z" fill="#ECE8EA"/>
<path transform="translate(771,623)" d="m0 0h12l16 7 16 8 7 4h9l2 4 5 2 11 20 12 21 14 26 15 29 7 14-13-2-18-3-2-1-5-11 1-2 13 9-1-5-12-21-8-13-8-3-11-11-9-4h-8l-8 8-5-1-8-4-7-7-1-7 6-5 3-1h9l16 6 16 9 6 3-4-8-6-10-13-23-28-4-15-4-8-4-4-5-1-4 3-5z" fill="#358DAC"/>
<path transform="translate(1049,448)" d="m0 0 2 1v2l8 4 14 3h11l8-4 10-3h2l3 8 4 10 2 12-3 4-4 11-3 6-5 4-13 4h-20l-12-4-9-6-3-3-3-6v-14l4-6 4-9 2-12z" fill="#F5B66D"/>
<path transform="translate(1363,634)" d="m0 0 3 1-14 6-12 6-2 2 1 6 4 4-2 5-1 13-2 7-2 3 1 10 3 5-2 5-2 3-1 5 13-5 25-11 6-2v3l-10 5-21 9-8 2-40 14-15 5-6 1-3-2 3-10 9-20 8-16 11-24 4-6 5-1v-2l18-8 14-7z" fill="#F79D40"/>
<path transform="translate(1396,479)" d="m0 0h15l2 1-2 4-8 11-4 4-14 20-13 19-11 17-12 19-5 6-7 1v-9l6-12-2-13v-2h-2l1-7 5-10 1-3h2l1-4 7-14h2l1-4h2l2-5 8-6 3-3h2v-2l12-6z" fill="#F59343"/>
<path transform="translate(607,601)" d="m0 0 5 2 6 1 7 2 3 2v3h2l3 6 6 2 4 3-6 3-1 1 8 4 5 4 5 2 5 5 4 3 2-2v2l4 1-2-3 1-3 4 3 9 2 3 3 7-1 6-1h2l4-2 1-1 2-10 3-3 8 1 9-2 1 3-1 2 4-1 14 4 6 5v3l4 2 6 4 2 7 11 11 4 9 3 4 4 10 3 11-1 3-5-7-2-1-3-9h-2l-5-12-5-8v-2h-2l-2-5-4-6-2-1-3-5-6-5-7-3v-2l-8-1h-11l-5 5h-2l-3 9-3 5-5 6-7 2-10-1-2-1v-2l-6-2-6-5-4-2-4-4-8-7-3-1-4-4-9-5-15-8-13-2-2-1h-9l-14 3-11 6-2 1-2-7 7-3-2-4 3-5 14-7h9z" fill="#ECE7E8"/>
<path transform="translate(1386,725)" d="m0 0 2 2-2 34 1 4-1 1v15h-2l-2 4-6 2v2l-4 4-4 12h-2l-1 3h-2l-1 3h-2l-1 7-7 5-6 7-2 1v3h2v3l4 1h-10l3-4-7 2-1 2-6 1 2-4 9-7 8-7 8-10 4-8 2-8v-15l-4-11-8-9-7-5-6-3v-3l6-5 14-9 3-3 10-2 2-4z" fill="#4AA6B2"/>
<path transform="translate(721,638)" d="m0 0h14l3 1v2l9 3 7 7v3l3 1 5 7v4h2l4 7-1 2-4-3v9l2 10h-2l-2 11-1 12v4h-3l1 6 1 4-1 3 1 1 2 11 3 9 5 10 2 3-4-2-12-12-3-2-8-37-5-20-4-13-2-8-6-20-1-11h-5z" fill="#F7A842"/>
<path transform="translate(717,662)" d="m0 0 5 1 3 4 10 32 8 31v10l-6-2-12-9-5-2-4-7-13-11-11-8v-2l-3-1-3-6-2-1-1-7 2-4 11-5 10-4 5-3 3-1 2-4z" fill="#F8A83F"/>
<path transform="translate(1052,880)" d="m0 0 6 1 14 6 7-1 14-6h2l5 10 6 16 4 9v5l-10 2h-4v7l-16-1-9-1-14 2-5-1-1-4 3-6v-17l-5-6-2-1v-3l3-2z" fill="#F8C79D"/>
<path transform="translate(771,623)" d="m0 0h12l16 7 16 8 7 4h9l2 4 5 2 11 20 12 21 7 13v2h-2v-2h-2v-2l-2-1-3 2-4-1-9-2-4-2v-7l-8-13-13-24-1-1-28-4-15-4-8-4-4-5-1-4 3-5z" fill="#419AB0"/>
<path transform="translate(1066,832)" d="m0 0h70l22 1 3 2-17 10h-139l-17-10 2-2z" fill="#DEE6E8"/>
<path transform="translate(1206,455)" d="m0 0h5l4 5 3 11 1 8v17l-1 14 8-12 3-3 3-5 3-1 2 4-1 5-1 7 9-4 13-6 4-1h9l2 1v2l4 1 1 6-8 5h-4v3l-2 1-9 1-11 3-8 1-8-1-1 6-5 7-2 3-5-8-2-5 1-3-4-14-2-8-5-15-2-5-1-11 3-7z" fill="#F7A945"/>
<path transform="translate(1382,703)" d="m0 0h2l-3 11-10 11-11 8h-2l-1 3-11 7-8 6-2 2h-8l-4-2-10-1-1-1h-18l-1 1-17 1-4 1-4-1v-2h2l1-3 12-2 20-7 26-10 24-10h2v-2l20-9z" fill="#F79E40"/>
<path transform="translate(821,691)" d="m0 0 8 1 6 4 10 10 7 2 6 9 13 23 3 5-1 4-13-9 3 8v5l-31-2v-1l6-1-4-2v-2l-5-1-1-3-3-26v-8h-2z" fill="#F49143"/>
<path transform="translate(743,577)" d="m0 0h8l14 4 20 9 8 4 10 2 5 3 2 1 3 8 10 15 13 22-1 2-4-4h-9l-8-5-6-9-14-24v-2l-26-2-18-3-10-4-6-6v-6l6-4z" fill="#4BA7B2"/>
<path transform="translate(760,768)" d="m0 0h5l4 4 5 3 7 5h3l2 9 1 10 5 10v3h2l2 5-1 2-14 2h-22l-7-5-2-8v-8l5-10 2-5 2-2 1-4-4-1 1-9z" fill="#F69C41"/>
<path transform="translate(1263,512)" d="m0 0 2 1-4 3h-5l1 4 5 1-4 3 1 9 6 3 3 9-5 6-1 4-1 3h-3v-6l-5 1-7 3-11 2v5l-2-2-5-12-8-15 1-5 5-8 1-4h9l16-3 2-1z" fill="#EDE9EA"/>
<path transform="translate(874,615)" d="m0 0h14l13 1-1 5-7 20-5 15-1 5-1 17-8 20-4 8-2-2-1-30v-14l2-19 3-10-1-10z" fill="#56B5B3"/>
<path transform="translate(687,713)" d="m0 0 10 2 13 8 4 3 6 1 1 3 4 2 3 1 3 5 9 8 1 3-23 1h-42v-3l2-1 3-10 6-7 4-2-2-1 1-6z" fill="#F8A83F"/>
<path transform="translate(1284,397)" d="m0 0 4 1-5 4-1 3h-2v3h-2l-2 6-8 16-7 15h-2l-2 6-6 10-10 14h-3v-7l3-15 1-13-2-14-4-7-7 1-4 3v-3h-2l-2-5 4-4 9 1 3-1v2h6l1 4 3 3h3l1-2 6-2 2-2 1-2 7-3 3 1-4 3v3l7-5 7-11z" fill="#ECE8E9"/>
<path transform="translate(679,425)" d="m0 0 9 3 8 6 9 11 15 24 11 19 1 5-7-6-9-7-13-9-15-13-7-7-7-10-2-4v-6l4-5z" fill="#56B5B3"/>
<path transform="translate(804,835)" d="m0 0 5 1 9 5 12 6 11 7 1 4-12 7-12 5-14 4h-8l-4-2v-11l6-12 4-12z" fill="#F59242"/>
<path transform="translate(906,445)" d="m0 0 5 2 17 16 12 11 10 10 8 7 2 4-9 8-7 9-11 16-9 16-6 12-4 2v-3l-2-1 6-16 4-8 5-6 6-13 1-4-2-1v-6l5-5h2l-1-7-3-5-5-10-5-5-4-6-4-4v-2l-4-2-7-8z" fill="#419AB0"/>
<path transform="translate(1294,392)" d="m0 0h10l4 4v7l-8 13-4 5h-2l-2 4-7 7-14 11-9 8h-4l1-6h2l2-6 6-13 9-18h2v-3h2l1-4 3-3h2l1-3z" fill="#F7A945"/>
<path transform="translate(1413,480)" d="m0 0 4 2-5 5-4 8-29 43-14 22-11 17-13 23-5 9-12 22-8 17 3 1-6 2 1-8 5-9v-3l-9 18-2-1v-4l4-4 12-25 7-11h2l2-6 8-16 24-38 17-25 12-17 5-7 5-5z" fill="#FAB940"/>
<path transform="translate(962,630)" d="m0 0 3 1h11l2 1h198l11-1h10l23 2 2 1 1 9-2-2-1-3-10-1h-223l-59 1v17h-1l-1-5v-11l2-5 2-1 18-1h14z" fill="#DEE6E9"/>
<path transform="translate(705,802)" d="m0 0 2 1-1 6-1 9 1 2 5 1h48l22-1 14-1v-2l3 1 3 6-21 3-53 2-4 1h-11l3 7 4 4v4l-7-1-11-6-7-8-2-4v-8l3-7 8-7z" fill="#FAB83E"/>
<path transform="translate(1324,651)" d="m0 0 3 1-7 4h-2v2h-2v2l-2 2-2 4-3 3h-2l-1 13 3 2-1 6-3 5 2 1-2 13 2 3-2 12v2l4 1-24 8-6 1-3-2 3-10 9-20 8-16 11-24 4-6 5-1v-2z" fill="#F8A83F"/>
<path transform="translate(874,633)" d="m0 0 1 4-2 10-1 13v14l1 30 1 1 8-19 3-8h1l2 20 3 14 5 13 6 13 1 5 3 1-2 1 1 9-2 4h-6l-3-3-11-23-14-27 2-1-1-19v-33l3-16z" fill="#F6F8F8"/>
<path transform="translate(813,525)" d="m0 0h6l5 5 2 5v10l-3 16-8 27-3 9h-3l-4-35v-19l3-12 3-5z" fill="#4099B0"/>
<path transform="translate(1072,717)" d="m0 0 8 1 6 4 5 6 1 2v10l-4 6-7 6-2 1h-8l-9-5-5-8v-11l6-8 5-3z" fill="#DEE6E9"/>
<path transform="translate(846,574)" d="m0 0 7 1 4 7 1 10-4 17-12 36-2 1-2-9-1-14v-32l2-9 4-6z" fill="#409AB0"/>
<path transform="translate(1294,548)" d="m0 0 6 1 9 7 5 2h8l4-1-2 4-5 3h-2l-1 7h-3l-3 6-2 10-1 6v13l1 6-1 1v5l2 1 1-2 5 5 6-1-2 6-8 16h-4l-2-9-2-23-4-23-4-27z" fill="#F8A943"/>
<path transform="translate(1223,423)" d="m0 0 2 1v14l2 8v6h2l4 18 3 9-1 6-6 12-3 1-2 5-6 8h-1l1-15v-17l-3-17-4-6-9 1v-3l-6-1-1-3 3-2h7l1 2 13 1 3 1 3-1v-5l-4-1-1-4h2l-1-7v-9z" fill="#ECE8E9"/>
<path transform="translate(748,827)" d="m0 0h27v1l-24 1 2 5 5 4 1 6 3 1-2 1 5 10-10-3-11-2-16-4-11-3 1-4-5-5-1-5 15-2z" fill="#F7A841"/>
<path transform="translate(1382,703)" d="m0 0h2l-3 11-10 11-11 8h-2l-1 3-11 7-8 6-2 2h-8v-1h7l1-3 3-2-3-3 2-13 8-6 5-5 13-7 3-3 9-4z" fill="#F39145"/>
<path transform="translate(1274,440)" d="m0 0 2 3 7-1 5-1 5 2 2 4-2 2 3 7-1 1 4 4 1 2v7h-1l-2-7-4-2-11-1v2l-10 3h-3v2l-12 5-3 2h-5l1-5 7-13 10-11z" fill="#ECE8E9"/>
<path transform="translate(1206,455)" d="m0 0h5l4 5 3 11 1 8v17l-1 14 8-12 1 3-4 7-2 5-4 2-1 6-4-1 1-3-4-14-2-8-5-15-2-5-1-11 3-7z" fill="#F6A450"/>
<path transform="translate(1289,476)" d="m0 0h3l-2 4-8 4 2 2 7 1-3 2h-3l-1 3h-2l-1 5 2 3-1 4-4 1-2-1-1-6-3-1v-2h-11l-13 5-12 6-2-2 10-22 2-1 24-1 12-2z" fill="#ECE8E9"/>
<path transform="translate(1050,889)" d="m0 0h16l3 7 6 28 20-1 1 1v5l-16-1-9-1-14 2-5-1-1-4 3-6v-17l-5-6-2-1v-3z" fill="#F6F7F8"/>
<path transform="translate(858,553)" d="m0 0 1 2 4-1 12 5 10 5-1 14 3 15-2 2h-7l-1 3-6-2-4-4-9-36z" fill="#57B6B4"/>
<path transform="translate(753,450)" d="m0 0 5 1 4 5 2 6v10l-6 30-3 12-2 2-1-1-4-26-2-15v-10l3-11z" fill="#3791AD"/>
<path transform="translate(1285,459)" d="m0 0 11 2 3 3v6l-5 5-6 3-9 2-9 1-26 1v2l-7 3 1-9 4-3h2l2-4 2-1v6l11-4 6-2v-2l4-1v-2l5-2 8-1v-2z" fill="#F7AA46"/>
<path transform="translate(782,488)" d="m0 0 5 1 5 6 1 10-4 20-7 26h-3l-4-31v-17l2-9z" fill="#4EABB3"/>
<path transform="translate(571,630)" d="m0 0 8 2 9 6 15 8 13 8 24 14 22 14 16 11 6 4v2l5 2 11 7 9 8v2l3 1-2 3-20-14-11-8-18-12-13-8-19-12-24-15-15-9-16-8-5-2z" fill="#FCE974"/>
<path transform="translate(1289,545)" d="m0 0 6 1v3l2 18 4 27 4 25v8l-2-4-4-22v-4h-3l2 10 2 6v12l3 16 2 1v6l3 2-2 7-2 2-1-7-5-23-6-36-3-20-3-12v-8l-4-1-7 6-1 2h-2l-2 9h-2l-1 6-1-4 3-8 4-6 9-8z" fill="#FAB83E"/>
<path transform="translate(1296,597)" d="m0 0h3l5 26 5 25 3-4 5-11 3-3-1 6-4 7-2 8 14-6 15-6 4-1 12-6 31-14 3 1-5 5-24 11-22 9-14 7-11 5-7 1-4 8-4 10-8 14-1-4 11-24 3-5 2-6-4-2v-6l-3-7-2-10v-13l-3-8z" fill="#FDEA74"/>
<path transform="translate(796,674)" d="m0 0h9l16 6 16 9v1h-5l-5-1 1 3-4-1h-8l-8 8-5-1-8-4-7-7-1-7 6-5z" fill="#57B6B4"/>
<path transform="translate(884,621)" d="m0 0h8v3h2l2 3-1 7-7 22-1 5-1 17-6 15-2-3 1-38 2-13v-9l-2-4z" fill="#4BA7B3"/>
<path transform="translate(743,577)" d="m0 0h8l14 4 4 3 3 11-6 4v1l-11-1-13-4-8-7v-6l6-4z" fill="#57B6B4"/>
<path transform="translate(695,435)" d="m0 0 4 2 10 14 21 35 2 4-1 3-4-5-14-10-11-8-11-9v-2l9-3 1-8h-2l-3-9z" fill="#3791AD"/>
<path transform="translate(685,817)" d="m0 0 6 4 1-3 2 10 6 8 8 5 7 3 23 4 10 3 14 3 11 7 2 2 1 4v10l-1-3h-9l-6-3-9-5-1-2 7-2 6 1v-3l-4-4-6-1v-2l-7 1-1 2-7-1-4-2v-2l-4 2h-6l-14-4 1-3-10-4-1-3-7-3-1-2-1-7-1-4-5-1z" fill="#EDE5E2"/>
<path transform="translate(771,623)" d="m0 0h12l10 4v2l6 4 2 7-2 3-8 3-8-1-11-4-6-5-2-6 3-5z" fill="#56B5B3"/>
<path transform="translate(1242,535)" d="m0 0h13l5 4 1 5-4 6-8 5-14 3v5l-2-2-5-12-3-7z" fill="#F7AA48"/>
<path transform="translate(767,556)" d="m0 0h13l7 10 12 19 8 12v2l-4-2-10-2-7-3-1-5-6-9-12-21z" fill="#56B5B3"/>
<path transform="translate(1282,707)" d="m0 0 2 1-3 9-9 23 41-14h5v3l-18 7-28 9-1 2h-2l-1 3h-7l2-1-2-9-5-11-2-6 1-5h3l8 19 2-1 9-20z" fill="#FCE973"/>
<path transform="translate(1255,711)" d="m0 0h1v7l-1 5 5 13 3 6v7l4 2-21 3-7 2h-5l3-7 9-15 8-19z" fill="#FAB641"/>
<path transform="translate(768,584)" d="m0 0 6 1 15 7 8 3 7 2 6 3 3 8 10 15 4 7-1 2-5-3-5-9-3-5v-3h-2l-4-7-6-2-33-2-3-3 5-3v-4z" fill="#419BB0"/>
<path transform="translate(1381,698)" d="m0 0h3v5l-13 4-13 6h-2v2l-19 8-25 10-20 7-10 4-4-1 10-4 28-10 2-2-8 1-36 12h-2l1-5 7-17 2-1-3 11-2 5 3 2 15-4 45-16 10-3 26-11z" fill="#FBB93E"/>
<path transform="translate(1231,420)" d="m0 0h3l3 5 1 4v33l-1 9-2 1-3-6-3-11v-3h-2l-2-15v-8l2-6z" fill="#F7A841"/>
<path transform="translate(677,780)" d="m0 0h18v2l6 1 7 6v11l-8 8h-2l-1 3-7-2-2-2 1-7 6 2-3-8-5-8-10-5z" fill="#ECE7E7"/>
<path transform="translate(812,718)" d="m0 0 6 1 2 14v11l-4 2h-19l-2 1v-6l5-3 3-7 3-3 5-9z" fill="#F59242"/>
<path transform="translate(1586,715)" d="m0 0h8v3h6v30h-11l-2-4h2l1-3 4-2v-6l-10 2-2 7v3l-3 2h-4v-2l2-1 2-6 2-5 3-5 1-4h2z" fill="#ECE8EA"/>
<path transform="translate(693,815)" d="m0 0h1v9l47 2 7 1v1l-21 1-4 1h-11l3 7 4 4v4l-7-1-11-6-7-8-2-4v-8z" fill="#F9B94F"/>
<path transform="translate(1309,733)" d="m0 0 3 1h-2l-1 5 14 6 11 2 1 3h-9l-2-1-10-1-1-1h-18l-1 1-17 1-4 1-4-1v-2h2l1-3 12-2 20-7z" fill="#F6A544"/>
<path transform="translate(816,690)" d="m0 0h8l-2 2 6 50v6l-7 1-2-26-4-26-1-1v-5z" fill="#FAB942"/>
<path transform="translate(732,493)" d="m0 0 5 5 6 7 7 9v2h3l5 9 14 19 6 10-5-2-8-2-3-3-2-5-10-16-3-7 1-4-3 1-2-2-2-5-9-14z" fill="#56B5B3"/>
<path transform="translate(810,527)" d="m0 0 2 3 2 10-2 17v26l2 5-2 9h-3l-4-35v-19l3-12z" fill="#57B6B4"/>
<path transform="translate(1025,263)" d="m0 0h6l5 2v1l-13 2-8 4-7 6-7 12-2 8 1 14 2 10-5-5-3-10v-16l4-10 7-9 9-6z" fill="#F0F3F4"/>
<path transform="translate(782,488)" d="m0 0 5 1 5 6 1 10-4 20-3 12h-2l-2-6v-12l1-16-1-10-1-4z" fill="#419AB0"/>
<path transform="translate(1272,571)" d="m0 0 2 2v14l-3 16h-2l-2 12-4-1-1-5v-23l3-11 1 4h2l1-7z" fill="#FAB949"/>
<path transform="translate(751,451)" d="m0 0 2 3 3 11-2 12v28l2 3-1 6-2 2-1-1-4-26-2-15v-10l3-11z" fill="#57B6B4"/>
<path transform="translate(840,580)" d="m0 0 4 2v13l-1 4v24l-1 9 1 3h2l-3 10-2 1-2-9-1-14v-32l2-9z" fill="#57B6B4"/>
<path transform="translate(845,707)" d="m0 0 7 1 6 9 13 23 3 5-1 4-14-10-4-8-1-8h-2z" fill="#F2F4F3"/>
<path transform="translate(1206,457)" d="m0 0h3l4 5 1 5 1 16-1 17-1 6-2-2-6-14v-28z" fill="#F7A841"/>
<path transform="translate(1329,620)" d="m0 0 2 8 5 2 2 3-3 3 3 1h2l9-1-4 4-5 1-18 7h-6l1-5 10-20z" fill="#F7A040"/>
<path transform="translate(1056,333)" d="m0 0 11 3 16 8 6 2 1 2 14 7 9 8 1 5-5-5-7-6-8-3-4-3h-10l-13-4-3-2v-2h-2v-2l-4-2v-3l-2-1z" fill="#F4B66E"/>
<path transform="translate(1261,494)" d="m0 0h9l2 1v2l4 1 1 6-8 5h-4v3l-7 1 1-5v-3l-1-5v-3l-16 8-9 3-1-2 2-2 2 1 21-10z" fill="#F7AB48"/>
<path transform="translate(695,435)" d="m0 0 4 2 10 14v2h-2l4 10-1 5-2 1-2-1v2l-3 1-12-10v-2l9-3 1-8h-2l-3-9z" fill="#409AB0"/>
<path transform="translate(886,622)" d="m0 0h6v2h2l2 3-1 7-7 22-2 6h-2l-1-15 1-16z" fill="#4099B0"/>
<path transform="translate(746,542)" d="m0 0 7 1 9 4 5 3 8 2 4 2v3h-10l-27-2-2-3 5-2 1-1z" fill="#439DB0"/>
<path transform="translate(1239,556)" d="m0 0h3v2h4l-1 10 2 4 3 7-1 9 1 4-5 4-1-2h-3l-1 2v-2l-2-1 3-3 5-1-8-18-3-7v-6z" fill="#F8F6F3"/>
<path transform="translate(1309,656)" d="m0 0h7l-3 2-4 4-9 19-10 22-7 14h-2l2-9h-3l1-5 8-15 7-16 2-1-1 5-4 9v3l8-16 4-9z" fill="#FBBB40"/>
<path transform="translate(1246,481)" d="m0 0h18l1 2h-2l-1 3-13 5-1 3-1 5-4 4-8 3-1-2 10-22z" fill="#F7F7F7"/>
<path transform="translate(1372,660)" d="m0 0 9 1 2 6 2 5-1 2-8 2-10 1-2 1-3-5-1-7 1-2 3 1v2l5-1z" fill="#4BA7B3"/>
<path transform="translate(816,525)" d="m0 0 5 1 4 6 1 3v10l-3 16-4 14-2 1-1-10 2-12 1-13-2-12z" fill="#3690AC"/>
<path transform="translate(685,428)" d="m0 0 5 1 6 5 1 5 2 4v5h2l1 4-2 5-9 3-7-6-2-4 7-2h2l1-8-4-8-1-3z" fill="#4BA7B3"/>
<path transform="translate(625,742)" d="m0 0 1 3-1 4 56 2v1l-13 2-10 2h-22l-9-1-1 4-2-4v-11z" fill="#FCE675"/>
<path transform="translate(1275,416)" d="m0 0 2 2-1 9-1 3 2 6-2 4-11 9-2 2h-4l1-6h2l2-6 6-13 4-9z" fill="#F6A149"/>
<path transform="translate(761,855)" d="m0 0 6 2 8 6 1 4v10l-1-3h-9l-6-3-9-5-1-2 7-2 6 1v-3z" fill="#ECE8EA"/>
<path transform="translate(635,706)" d="m0 0 4 2 3 4v2h2v5l-10 13-3 1 2-5-5-3-1-7-2-8h3l2 1v2l4 1 2-6z" fill="#ECE7E7"/>
<path transform="translate(1289,545)" d="m0 0 6 1 1 2-2 1v8l2 21 2 10-1 3h-2l-2-6-4-25v-12l-10 6-5 6h-2l-2 9h-2l-1 6-1-4 3-8 4-6 9-8z" fill="#FCE874"/>
<path transform="translate(792,628)" d="m0 0 5 1 17 8 4 4h-2l-1 4-5 2-13 1-6-2 4-3 4-1 1-4-1-5-4-2z" fill="#419AB0"/>
<path transform="translate(1206,455)" d="m0 0h5l4 5 3 11 1 8v17l-1 14 8-12 1 3-4 7-2 5-4 2-1 6-4-1 1-3-2-10 2 2v3h2v-40l-1-9-4-6z" fill="#F9CAA0"/>
<path transform="translate(784,625)" d="m0 0 7 1 9 9 1 5-2 3-8 3-8-1-4-2 3-3 6-2-1-7-1-4z" fill="#4BA7B3"/>
<path transform="translate(757,580)" d="m0 0 8 1 4 3 3 11-6 4v1l-11-1-3-3 5-3h3l-1-6-2-3z" fill="#4BA7B3"/>
<path transform="translate(718,505)" d="m0 0 6 1 18 7 4 2h2v2l2 1-4 1-28-1 3-1-1-9z" fill="#409AB0"/>
<path transform="translate(1381,698)" d="m0 0h3v5l-13 4-18 8-25 10-8 2 2-4 21-8 33-14z" fill="#FDEA74"/>
<path transform="translate(848,575)" d="m0 0h5l4 7 1 10-4 17-1 3h-2v-2l-2-1 1-9v-16z" fill="#368FAC"/>
<path transform="translate(1024,261)" d="m0 0 10 1 4 2v3l-4-1-3-2-11 1-10 4-7 6-7 12-1 4v16l3 10 3 5h-3l-5-10-1-3v-18l3-10 6-8 8-7 9-4z" fill="#4B2B72"/>
<path transform="translate(843,576)" d="m0 0 3 4 2 11-1 7-1 16v9l2 2-2 9-3 1-2-5 1-11v-23l1-1v-13l-2-1 1-4z" fill="#4BA7B3"/>
<path transform="translate(752,451)" d="m0 0 5 3 2 5-1 5 1 6v8l-2 6v13l1 5-2 6-3-3v-28l2-13-3-10z" fill="#4099B0"/>
<path transform="translate(1251,723)" d="m0 0h1v12l-7 6-1 6 1 1 12 1v3l-18 4h-5l3-7 9-15z" fill="#F6A64A"/>
<path transform="translate(862,552)" d="m0 0 9 2 26 9v2h9l3-3h3l2 2-4 11-1-4-9-3-13-4-15-5-9-4z" fill="#419BB0"/>
<path transform="translate(1296,597)" d="m0 0h3l5 26 5 27-4-1-1-1v-6l-3-7-2-10v-13l-3-8z" fill="#FCE973"/>
<path transform="translate(707,501)" d="m0 0 7 1 5 2 2 4 1 6-1 3 17 1v1h-22l-7-1v-3l2-6-2-4v-3z" fill="#4CA9B3"/>
<path transform="translate(778,492)" d="m0 0 1 3 2 1 1 20-2 9-1 1-1 10h-1l-2-16v-17l2-9z" fill="#57B6B4"/>
<path transform="translate(812,678)" d="m0 0 7 1 18 10v1h-5l-5-1 1 3-4-1h-8l-5 3 1-9h2z" fill="#4CA8B2"/>
<path transform="translate(816,641)" d="m0 0 6 1 14 6v4l-13-1-1 2-2-2-16-2-1-2 7-1 5-2z" fill="#358EAC"/>
<path transform="translate(1151,473)" d="m0 0h6l5 2h8l10 4 4 4-3 2h-6l-14-7h-11l-5-2v-2z" fill="#EDE1DB"/>
<path transform="translate(782,488)" d="m0 0 5 1 5 6 1 10-2 11-3 4-2-1v-22l-1-6h-3z" fill="#368FAC"/>
<path transform="translate(693,815)" d="m0 0h1v9l47 2 7 1v1l-46 1-7 2-3-5v-8z" fill="#FBE076"/>
<path transform="translate(1415,604)" d="m0 0 2 2-1 13h-1v-9l-6 3-8 5-12 6-2-1 4-4-4-1 2-2 10-4 11-5z" fill="#FAB73E"/>
<path transform="translate(1106,261)" d="m0 0h9l10 3 8 7 6 7 1 4-5-5-8-7-11-4h-15l-11 1 1-2 9-3z" fill="#ECF0F2"/>
<path transform="translate(751,451)" d="m0 0 2 3 3 11-2 12v28l2 3-1 6-2 2-1-1-1-18-1-8 1-22 1-4-2-7z" fill="#4BA7B3"/>
<path transform="translate(737,538)" d="m0 0 7 1 5 2-2 2v6l-3 3-3 1v1l-11-1v-3l7-2z" fill="#4BA7B3"/>
<path transform="translate(1371,482)" d="m0 0 3 1-9 6-2 5 1 4-3 5h-2l-1 4h-3l-1-5 1-14 4-1 2 1 1-2 6-2z" fill="#ECE8E9"/>
<path transform="translate(1105,454)" d="m0 0h2l4 11 4 13v12l-6 8-7 6-2-1 3-1 3-9 4-9 2-5-3-13-3-7z" fill="#F9CAA0"/>
<path transform="translate(794,595)" d="m0 0 9 1 5 3 2 1 3 8 10 15 4 7-1 2-5-3-5-9-3-5v-3h-2l-4-7-4-2 4-1-13-6z" fill="#429CB0"/>
<path transform="translate(811,528)" d="m0 0 3 1 2 9-2 30v15h2l-1 5h-2l-2-7v-24l2-18z" fill="#4BA7B3"/>
<path transform="translate(1100,260)" d="m0 0h19l8 3 10 9 5 8 2 7-4-3-3-7-7-8-5-4-10-3h-9l-12 3-6 4h-2l-1-3z" fill="#502E6D"/>
<path transform="translate(720,727)" d="m0 0 6 2 8 6 11 9 2 4-3 1-6-4-10-9-1-3-4-1-4-4z" fill="#FCE973"/>
<path transform="translate(1229,419)" d="m0 0h6l4 5 1 3v28l-1 7h-1l-1-20v-13l-3-9-6 3-2 6v13l-2-4v-11l2-5z" fill="#F5B975"/>
<path transform="translate(1200,459)" d="m0 0 1 2-1 7 2 11 3 7 4 11 3 15-3-3-3-7v-3h-2v-2l-3-1 3-4-2-1v-4l-3-9-2-9 1-8z" fill="#EFE2DA"/>
<path transform="translate(1045,328)" d="m0 0h5l3 7-9 4-4 5h-2v2h-2v2l-4-2 2-4 5-5 4-2z" fill="#F5B66D"/>
<path transform="translate(1397,586)" d="m0 0 6 2 4 4v2l4 2h4l3 4 1 11 1 3-3 1-1 2v-13l-3-1-1-4h-2v-2h-3v-2l-7-2-3-1-2-2v-3z" fill="#ECE6E6"/>
<path transform="translate(1204,456)" d="m0 0h6l4 5 1 2 1 9v31l-1 9h-2l-1-5h-2l-1-7 2 1 1 3 1-4 1-20-1-15-3-5-1-3h-5z" fill="#F5B66D"/>
<path transform="translate(859,739)" d="m0 0 7 4 7 5 2-2 3 8h-8l-6-2-5-11z" fill="#3B94AE"/>
<path transform="translate(1287,384)" d="m0 0 6 1 3 4 3-3 2 1 5 4 2 2v3l-4-2v-2l-10 1-6 3 1-7-7 1 2-1 2-4z" fill="#ECE7E8"/>
<path transform="translate(874,633)" d="m0 0 1 4-2 10-1 13v14l1 30 2 1-1 5-2 1-3-7h2l-1-19v-33l3-16z" fill="#DEE6E9"/>
<path transform="translate(1391,644)" d="m0 0 3 1-3 19-2 2-3-7-3-10h3l1-3h4z" fill="#F1F1F0"/>
<path transform="translate(1245,474)" d="m0 0 1 4-3 3 2-1 30-2h7l-3 2-9 1-26 1v2l-7 3 1-9z" fill="#F7B76A"/>
<path transform="translate(788,593)" d="m0 0 5 1 12 6 3 2-5 1-18-2 1-5z" fill="#338CAC"/>
<path transform="translate(1379,696)" d="m0 0m-1 1 1 3-10 5-21 9-9 2v-2l20-9z" fill="#F8AB40"/>
<path transform="translate(891,623)" d="m0 0 3 1 2 3-1 7-4 12-3-1-1-4 3-15z" fill="#358FAC"/>
<path transform="translate(824,707)" d="m0 0h1l4 34v3l7 2 2 2 6 1v1h-26l3-4v3l7-1-4-31z" fill="#F7A040"/>
<path transform="translate(1048,448)" d="m0 0 1 2-2 12-4 9-4 6v14l2 5-5-5-1-3v-7l4-10 5-10 3-12z" fill="#F9CAA0"/>
<path transform="translate(853,709)" d="m0 0h6l7 4 1 6-1 3-8-3z" fill="#409AB0"/>
<path transform="translate(1410,723)" d="m0 0h17l23 4 1 2-16-1-25-4z" fill="#4DAAB3"/>
<path transform="translate(1380,718)" d="m0 0h9l21 4v1h-33l2-4z" fill="#50ADB3"/>
<path transform="translate(1231,418)" d="m0 0h5l4 5 2 8 1 10-2 18-2 9h-1l1-13v-28l-4-7z" fill="#F9CAA0"/>
<path transform="translate(1390,810)" d="m0 0h3v2l2 1-8 7-5-2-2-3 1-2h-2l1-2z" fill="#348EAC"/>
<path transform="translate(972,518)" d="m0 0h1l-1 10-1 15v42h-1l-1-10v-40-3z" fill="#EBD7C5"/>
<path transform="translate(1165,312)" d="m0 0 5 4 3 6v15l-3 7-1-3v-16l-4-11z" fill="#E7EDEF"/>
<path transform="translate(909,561)" d="m0 0 5 2-4 12-1-4-9-3-9-4 2-1 6 2h7l3-3z" fill="#338CAC"/>
<path transform="translate(760,548)" d="m0 0 5 1 10 3 2 4-15-1-4-2z" fill="#358EAC"/>
<path transform="translate(1428,492)" d="m0 0 6 2 3 2 1 9-3 4-1-2-2 4-2-13z" fill="#EDE6E4"/>
<path transform="translate(775,777)" d="m0 0 6 3h3l2 9v10l-4-5-3-9-2-3v-3h-2z" fill="#F6A745"/>
<path transform="translate(1242,535)" d="m0 0h13l5 4 1 5-4 6-6 4h-2l1-3 4-3h2l1-4-2-6-12-1-3-1z" fill="#F7C086"/>
<path transform="translate(730,510)" d="m0 0 7 1 9 4h2v2l2 1-4 1-13-1-1-4z" fill="#3892AD"/>
<path transform="translate(1165,310)" d="m0 0 5 3 5 8v14l-5 14-2-4 3-5 1-3v-15l-5-8h-3z" fill="#4A3276"/>
<path transform="translate(885,686)" d="m0 0h1l4 23 6 16 1 5-3-3-3-5-2-8-5-16z" fill="#ECE8EA"/>
<path transform="translate(1094,923)" d="m0 0 2 1v5l-16-1-4-1v-2l3-1z" fill="#F3F4F4"/>
<path transform="translate(772,769)" d="m0 0 4 2 6 5 4 1v8h-2l-1-4-5-2-7-6z" fill="#FCE270"/>
<path transform="translate(1051,883)" d="m0 0 1 2-2 5-3 1v3l4 2 3 3-1 3-8-8-2-6-1-4z" fill="#5B1D6A"/>
<path transform="translate(1221,529)" d="m0 0 5 2v2h2l2 8-6 1-4-8z" fill="#F8F6F3"/>
<path transform="translate(1107,454)" d="m0 0 6 3 1 7h2v7h-2l-1 4-3-10-3-8z" fill="#ECE8EA"/>
<path transform="translate(1344,583)" d="m0 0h2l-1 5-12 21h-3l8-16z" fill="#FDEA74"/>
<path transform="translate(918,554)" d="m0 0 2 1-5 11-7 18-1 5 4 2-6-1-1-1v-5l3-5 9-21z" fill="#581E6E"/>
<path transform="translate(772,860)" d="m0 0 5 2 3 13 3 3 4 2h-11l-1-13-2-5z" fill="#F7A742"/>
<path transform="translate(732,493)" d="m0 0 5 5 6 7 7 9v3h-2v-2l-3 1-2-2-2-5-9-14z" fill="#52B0B3"/>
<path transform="translate(1235,483)" d="m0 0h2l1 3 5-2-1 5-7 15-1-4 2-4-1-6h-3l2-5z" fill="#F6BC7C"/>
<path transform="translate(823,683)" d="m0 0 5 1 9 5v1h-5l-5-1 1 3-10-3 2-1 1-3z" fill="#449DB1"/>
<path transform="translate(1261,494)" d="m0 0h9l2 2-14 1-16 8-9 3-1-2 2-2 2 1 21-10z" fill="#F7C28C"/>
<path transform="translate(1009,375)" d="m0 0 2 4v16l4 10 11 8 4 2 1 5-4-4-5-3-9-7-4-10z" fill="#ECE9EB"/>
<path transform="translate(1251,723)" d="m0 0h1v12l-7 6-1 3-5 3 2-5 6-10z" fill="#F6AC4F"/>
<path transform="translate(780,490)" d="m0 0 3 3 1 11-1 18h-2v-12l-1-14-1-5z" fill="#4BA7B3"/>
<path transform="translate(1294,392)" d="m0 0h10l-4 3-3 6-5 1-2-5-2-1z" fill="#F9BA51"/>
<path transform="translate(685,817)" d="m0 0 6 4 1-3 2 10 9 12-7-2-4-4-1-7-1-4-5-1z" fill="#ECE9EA"/>
<path transform="translate(768,675)" d="m0 0 3 3 3 10h2l1 4h-6-3z" fill="#F7AD53"/>
<path transform="translate(849,456)" d="m0 0 6 2 8 4v2l6 2 15 9-2 1-15-8-16-9z" fill="#4099B0"/>
<path transform="translate(798,757)" d="m0 0 2 1-9 9-4 9-1-2h-3l1-5 4-4h2l2-4z" fill="#F7A742"/>
<path transform="translate(1352,733)" d="m0 0m-2 1 4 2-4 2-1 3-7 4-1-6 4-4z" fill="#F4AA59"/>
<path transform="translate(1024,261)" d="m0 0 10 1 4 2v3l-4-1-3-2-11 1-9 2v-2l7-3z" fill="#332F6B"/>
<path transform="translate(1230,458)" d="m0 0 2 4 3 8 1 1 1-9h1v19l-2 2-6-20z" fill="#F7C28C"/>
<path transform="translate(1309,656)" d="m0 0h7l-3 2-4 4-8 17h-2l1-4 8-18z" fill="#FBB93E"/>
<path transform="translate(1297,405)" d="m0 0 2 1v7l-3 5-1 3-1-3-2-1 1-8 4-2z" fill="#FAB93F"/>
<path transform="translate(904,745)" d="m0 0 4 2 2 4v4h-2l-1 4-4-2 1-6z" fill="#56B5B3"/>
<path transform="translate(1287,546)" d="m0 0h2v2l-10 6-5 6h-2l-2 9h-2l-1 6-1-4 3-8 4-6 9-8z" fill="#F7C18A"/>
<path transform="translate(1258,496)" d="m0 0 4 1 1 7-2 5 4 2-2 2h-5l1-5v-3l-1-5z" fill="#FABA4F"/>
<path transform="translate(1361,795)" d="m0 0h1l-1 8-4 8-6 7-1-2 4-8 6-9z" fill="#0B1956"/>
<path transform="translate(1415,604)" d="m0 0 2 2-1 13h-1v-9l-6 3h-3l1-4z" fill="#FAD87B"/>
<path transform="translate(1009,266)" d="m0 0 3 1-4 4-5 4-6 10-2-1 1-4 4-6z" fill="#4B3175"/>
<path transform="translate(1100,260)" d="m0 0h16v1l-16 2-9 3v2l-5 1-1-3z" fill="#2C2F67"/>
<path transform="translate(1260,624)" d="m0 0h1v9l-3 3 2 9 3 15v5l-2-4-6-27 4-2z" fill="#F5B568"/>
<path transform="translate(1227,426)" d="m0 0 1 2 2 1v7l-2 7-2-1-1-5v-8z" fill="#F79D41"/>
<path transform="translate(1432,513)" d="m0 0 2 3v8l-7 5-2-1 2-2z" fill="#EFE7E4"/>
<path transform="translate(1401,476)" d="m0 0h9l9 2 1 5-9-3-13-1z" fill="#ECE8E9"/>
<path transform="translate(1071,926)" d="m0 0 18 2v2h-12l-12-1 2-2z" fill="#54115B"/>
<path transform="translate(1229,436)" d="m0 0h2l1 6-2 7v3h-3l-1-10 2-4z" fill="#F6A653"/>
<path transform="translate(1413,480)" d="m0 0 4 2-5 5-4 6-4 2v2h-2l2-4 7-10z" fill="#FCE777"/>
<path transform="translate(1358,473)" d="m0 0h6l-2 5-5 4h-2v-6z" fill="#ECE8EA"/>
<path transform="translate(1268,431)" d="m0 0 1 4-2 5-7 10h-1v-5h2l2-6 3-7z" fill="#F59547"/>
<path transform="translate(1366,725)" d="m0 0 3 1-9 7h-2v2h-3l1-5z" fill="#F1AB68"/>
<path transform="translate(1363,634)" d="m0 0 3 1-14 6-10 5-4-1 10-5z" fill="#FAB63E"/>
<path transform="translate(1296,597)" d="m0 0h3l3 16-3-1-3-8z" fill="#FDEA74"/>
<path transform="translate(854,681)" d="m0 0 3 1 5 9v5l-3-1-1-4h-2l-1-7z" fill="#3891AD"/>
<path transform="translate(719,637)" d="m0 0h11v1h-9l3 7v6l-2-1-4-9-2-2z" fill="#F9D37E"/>
<path transform="translate(1403,567)" d="m0 0h3l-1 4-3 3-3 1-1 5v3l-3-3 2-6 4-6z" fill="#ECE8EA"/>
<path transform="translate(1053,385)" d="m0 0h8l1 2-4 4-5-1-2-4z" fill="#451355"/>
<path transform="translate(967,625)" d="m0 0 5 2 2 4-10 1-1-2z" fill="#3F99AF"/>
<path transform="translate(1226,498)" d="m0 0 1 3-4 7-2 5-4 2-1 6-4-1h3l1-6 3-2 4-9z" fill="#F5BA78"/>
<path transform="translate(798,819)" d="m0 0 4 2 6 7 4 4-5-2-7-4-5-1v-1l5-1z" fill="#F5A446"/>
<path transform="translate(711,635)" d="m0 0 5 1 2 3-4 3h-3v-2h-2l1-4z" fill="#F7F8F8"/>
<path transform="translate(1127,266)" d="m0 0 7 6 6 8-1 2-9-10-4-4z" fill="#DCE6E8"/>
<path transform="translate(1094,385)" d="m0 0 3 1-2 4-5 1-3-3v-2z" fill="#371655"/>
<path transform="translate(1069,338)" d="m0 0 17 7 1 2-9-1-2-1v-2l-5-2-2-1z" fill="#F4CFAD"/>
<path transform="translate(1354,707)" d="m0 0 3 1-5 2v2l-4 2-9 2v-2z" fill="#F8A640"/>
<path transform="translate(1055,902)" d="m0 0 5 5-1 6-2 1-2 3z" fill="#DEE6E9"/>
<path transform="translate(909,561)" d="m0 0 5 2-2 5-9-1 4-3 2-2z" fill="#3F98AF"/>
<path transform="translate(1257,449)" d="m0 0 1 2 3 1-6 9-3-1 2-5z" fill="#F8C492"/>
<path transform="translate(847,710)" d="m0 0 5 5 4 8-2 2v-2h-2l-5-11z" fill="#E6E8EA"/>
<path transform="translate(1317,631)" d="m0 0v3l-5 12-3 3-1-5 4-4 4-8z" fill="#FBB93E"/>
<path transform="translate(1053,909)" d="m0 0h1v11l-3 7-2-3 1-5 2-2z" fill="#5A1D6D"/>
<path transform="translate(838,637)" d="m0 0h1l1 7 1 1 2-2-1 6-3 3-3-5z" fill="#DEE6E9"/>
<path transform="translate(794,595)" d="m0 0 9 1 5 3 2 1-1 4v-3l-7-1-8-4z" fill="#49A5B2"/>
<path transform="translate(1294,461)" d="m0 0 4 2 1 1v6l-3 3z" fill="#F6BD7F"/>
<path transform="translate(999,475)" d="m0 0h3v3l-8 5h-3l4-5-2-2z" fill="#ED9267"/>
<path transform="translate(821,691)" d="m0 0 8 1v3h-5l-1 5h-1z" fill="#F6A245"/>
<path transform="translate(1226,518)" d="m0 0 1 3-8 12-1-4 3-1 1-5 2-3h2z" fill="#F7BE86"/>
<path transform="translate(1338,830)" d="m0 0 2 1-4 5-1 2-6 1 2-4z" fill="#4FADB3"/>
<path transform="translate(910,751)" d="m0 0 2 4 3 5h-7l-1-2 1-3h2z" fill="#ECEEF0"/>
<path transform="translate(828,745)" d="m0 0 4 3 4 2h-18l3-4v3l7-1z" fill="#F8A840"/>
<path transform="translate(1371,724)" d="m0 0h1v5l-8 3-2-1z" fill="#3D96AF"/>
<path transform="translate(1386,574)" d="m0 0h1l3 10-2 3-3-3v-7z" fill="#EDE1DA"/>
<path transform="translate(1418,555)" d="m0 0h6l-2 4h-7v2l-3-1 4-4z" fill="#ECE8EA"/>
<path transform="translate(778,541)" d="m0 0h1l1 10 3-4v5l-2 3-1 2-4-6h2z" fill="#DEE6E9"/>
<path transform="translate(1209,500)" d="m0 0 2 1 2 3 2-1v9h-2l-1-5h-2z" fill="#F5B976"/>
<path transform="translate(1200,459)" d="m0 0 1 2-1 7 1 11-2-1-2-9 1-8z" fill="#ECE9EB"/>
<path transform="translate(849,456)" d="m0 0 6 2 8 4v3l-5-2-9-6z" fill="#4AA6B2"/>
<path transform="translate(1278,742)" d="m0 0m-3 1h3v2l-4 2 3 2-4 1-4-1v-2h2l1-3z" fill="#F29B44"/>
<path transform="translate(713,720)" d="m0 0 5 2 2 2v3l-5-1-2-4z" fill="#FDEA74"/>
<path transform="translate(752,505)" d="m0 0h2l2 3-1 6-2 2-1-1z" fill="#51AEB3"/>
<path transform="translate(1136,273)" d="m0 0 3 1 5 11-1 2-3-3-3-7z" fill="#5C1C65"/>
<path transform="translate(808,589)" d="m0 0h1v8h3l1-2-2 9-1-4-3-1z" fill="#DEE6E9"/>
<path transform="translate(743,507)" d="m0 0 7 7v3h-2v-2l-3 1-2-2 1-4z" fill="#53B2B3"/>
<path transform="translate(1151,473)" d="m0 0h6l3 3h-8l-5-1-1 2-1-3z" fill="#EBE7E9"/>
<path transform="translate(772,860)" d="m0 0 5 2v18h-1l-1-13-2-5z" fill="#F7C28B"/>
<path transform="translate(680,786)" d="m0 0 7 1v4l-1 2-3-1z" fill="#ECE8EA"/>
<path transform="translate(1376,704)" d="m0 0h5l-1 4h-8l-5 1 4-3z" fill="#F7A643"/>
<path transform="translate(1372,490)" d="m0 0 2 1-2 1zm-1 2m-1 1m-2 1 2 1-8 8-1-2 4-5zm-9 9 2 1-2 1z" fill="#F5AA64"/>
<path transform="translate(843,852)" d="m0 0 4 1 3 2-1 3h-4l-2-3z" fill="#F7A342"/>
<path transform="translate(1381,698)" d="m0 0h3v5l-6 1 1-5z" fill="#F8C48B"/>
<path transform="translate(884,669)" d="m0 0h1v12l-3 3v-8z" fill="#429BB0"/>
<path transform="translate(1359,667)" d="m0 0h2l1 11-3-1-1-9z" fill="#3892AD"/>
<path transform="translate(1321,635)" d="m0 0 1 3-1 8h-4l-1 2 1-5z" fill="#F8A840"/>
<path transform="translate(1374,487)" d="m0 0h2v2l-4 1-2 4-4 2 2-5z" fill="#EEE4DF"/>
<path transform="translate(1071,926)" d="m0 0h5l1 3h-12l2-2z" fill="#40195E"/>
<path transform="translate(903,743)" d="m0 0 3 1-2 1 1 9-2 3-1-13z" fill="#DEE6E9"/>
<path transform="translate(717,721)" d="m0 0 4 2 7 6h-3l-5-2z" fill="#FBB93E"/>
<path transform="translate(813,694)" d="m0 0 3 3 1 9-2-3-3-3z" fill="#F8A840"/>
<path transform="translate(1245,475)" d="m0 0 1 3-2 1v5l-5-1 2-4z" fill="#FAB949"/>
<path transform="translate(1225,429)" d="m0 0h1v6l3 1-1 7-2-1-1-5z" fill="#F59242"/>
<path transform="translate(1165,310)" d="m0 0 5 3 3 4v2l-3-1-4-5-2 1z" fill="#433072"/>
</svg>
